# File created by Blade
# Date/Time:  Wed Jan 21 18:40:15 2015
#---------------------------------------------------------
:version 1.10
:name HOM
:units
  mass 1.0
  length 1.000000
  angle deg
:documentation
     Acclaim Skeleton File
:root
   axis xyz
   order TX TY TZ RX RY RZ
   position 0.000000 0.000000 0.000000
   orientation 0 0 0
:bonedata
   begin
      id 1
      name RightUpLeg_dum
      direction -1.000000 0.000000 0.000000
      length 3.693983
      axis 0.0 0.0 0.0 xyz
   end
   begin
      id 2
      name LeftUpLeg_dum
      direction 1.000000 0.000000 0.000000
      length 3.693983
      axis 0.0 0.0 0.0 xyz
   end
   begin
      id 3
      name Spine_dum
      direction 0.000000 1.000000 0.000000
      length 2.392956
      axis 0.0 0.0 0.0 xyz
   end
   begin
      id 4
      name RightUpLeg
      direction 0.000000 -1.000000 0.000000
      length 15.795667
      axis 0.0 0.0 0.0 xyz
      dof rx ry rz
   end
   begin
      id 5
      name RightLeg
      direction 0.000000 -1.000000 0.000000
      length 14.766989
      axis 0.0 0.0 0.0 xyz
      dof rx ry rz
   end
   begin
      id 6
      name RightFoot
      direction 0.000000 -0.258819 0.965926
      length 4.962790
      axis 15.0 0.0 0.0 xyz
      dof rx ry rz
   end
   begin
      id 7
      name RightToeBase
      direction 0.000000 0.000000 1.000000
      length 2.952750
      axis 0.0 0.0 0.0 xyz
      dof rx ry rz
   end
   begin
      id 8
      name LeftUpLeg
      direction 0.000000 -1.000000 0.000000
      length 15.795667
      axis 0.0 0.0 0.0 xyz
      dof rx ry rz
   end
   begin
      id 9
      name LeftLeg
      direction 0.000000 -1.000000 0.000000
      length 14.766989
      axis 0.0 0.0 0.0 xyz
      dof rx ry rz
   end
   begin
      id 10
      name LeftFoot
      direction 0.000000 -0.258819 0.965926
      length 4.962790
      axis 15.0 0.0 0.0 xyz
      dof rx ry rz
   end
   begin
      id 11
      name LeftToeBase
      direction 0.000000 0.000000 1.000000
      length 2.952750
      axis 0.0 0.0 0.0 xyz
      dof rx ry rz
   end
   begin
      id 12
      name Spine
      direction 0.000000 1.000000 0.000000
      length 0.000000
      axis 0.0 0.0 0.0 xyz
      dof rx ry rz
   end
   begin
      id 13
      name Spine_dum1
      direction 0.000000 1.000000 0.000000
      length 13.207411
      axis 0.0 0.0 0.0 xyz
   end
   begin
      id 14
      name Spine_dum2
      direction 0.000000 1.000000 0.000000
      length 13.207411
      axis 0.0 0.0 0.0 xyz
   end
   begin
      id 15
      name Spine_dum3
      direction 0.000000 1.000000 0.000000
      length 19.250100
      axis 0.0 0.0 0.0 xyz
   end
   begin
      id 16
      name RightShoulder
      direction -1.000000 0.000000 0.000000
      length 8.140465
      axis 0.0 0.0 90.0 xyz
      dof rx ry rz
   end
   begin
      id 17
      name RightArm
      direction -1.000000 0.000000 0.000000
      length 10.649840
      axis 0.0 0.0 90.0 xyz
      dof rx ry rz
   end
   begin
      id 18
      name RightForeArm
      direction -1.000000 0.000000 0.000000
      length 8.304624
      axis 0.0 0.0 90.0 xyz
      dof ry rz rx
   end
   begin
      id 19
      name RightHand
      direction -1.000000 0.000000 0.000000
      length 0.000000
      axis 0.0 0.0 90.0 xyz
      dof rx ry rz
   end
   begin
      id 20
      name RightHand_dum1
      direction -1.000000 0.000000 0.000000
      length 3.937000
      axis 0.0 0.0 90.0 xyz
   end
   begin
      id 21
      name RightHand_dum2
      direction 0.000000 0.000000 0.000000
      length 0.000000
      axis 0.0 0.0 90.0 xyz
   end
   begin
      id 22
      name RightHandThumb1
      direction 0.000000 0.000000 1.000000
      length 3.937000
      axis 0.0 0.0 90.0 xyz
      dof rx rz ry
   end
   begin
      id 23
      name LeftShoulder
      direction 1.000000 0.000000 0.000000
      length 8.140465
      axis 0.0 0.0 -90.0 xyz
      dof rx ry rz
   end
   begin
      id 24
      name LeftArm
      direction 1.000000 0.000000 0.000000
      length 10.649840
      axis 0.0 0.0 -90.0 xyz
      dof rx ry rz
   end
   begin
      id 25
      name LeftForeArm
      direction 1.000000 0.000000 0.000000
      length 8.304624
      axis 0.0 0.0 -90.0 xyz
      dof ry rz rx
   end
   begin
      id 26
      name LeftHand
      direction 1.000000 0.000000 0.000000
      length 0.000000
      axis 0.0 0.0 -90.0 xyz
      dof rx ry rz
   end
   begin
      id 27
      name LeftHand_dum1
      direction 1.000000 0.000000 0.000000
      length 3.937000
      axis 0.0 0.0 -90.0 xyz
   end
   begin
      id 28
      name LeftHand_dum2
      direction 0.000000 0.000000 0.000000
      length 0.000000
      axis 0.0 0.0 -90.0 xyz
   end
   begin
      id 29
      name LeftHandThumb1
      direction 0.000000 0.000000 1.000000
      length 3.937000
      axis 0.0 0.0 -90.0 xyz
      dof rx rz ry
   end
   begin
      id 30
      name Head
      direction 0.000000 1.000000 0.000000
      length 4.527550
      axis 0.0 0.0 0.0 xyz
      dof rx ry rz
   end
:hierarchy
   begin
      root RightUpLeg_dum LeftUpLeg_dum Spine_dum
      RightUpLeg_dum RightUpLeg
      LeftUpLeg_dum LeftUpLeg
      Spine_dum Spine
      RightUpLeg RightLeg
      RightLeg RightFoot
      RightFoot RightToeBase
      LeftUpLeg LeftLeg
      LeftLeg LeftFoot
      LeftFoot LeftToeBase
      Spine Spine_dum1 Spine_dum2 Spine_dum3
      Spine_dum1 RightShoulder
      Spine_dum2 LeftShoulder
      Spine_dum3 Head
      RightShoulder RightArm
      RightArm RightForeArm
      RightForeArm RightHand
      RightHand RightHand_dum1 RightHand_dum2
      RightHand_dum2 RightHandThumb1
      LeftShoulder LeftArm
      LeftArm LeftForeArm
      LeftForeArm LeftHand
      LeftHand LeftHand_dum1 LeftHand_dum2
      LeftHand_dum2 LeftHandThumb1
   end

# File created by Blade
# Date/Time:  Wed Jan 21 18:40:08 2015
# Frame Rate: 120.000 fps
#------------------------------------------------------
:FULLY-SPECIFIED
:DEGREES
830
root 2.933109 28.508027 -9.847257 87.837993 -25.600249 41.862772
RightUpLeg -148.174561 -60.293710 33.374643
RightLeg -5.068681 -0.000000 0.000000
RightFoot 10.986192 0.400590 49.161069
RightToeBase 18.038821 -0.000000 -0.000000
LeftUpLeg -84.938348 -19.416632 -27.535264
LeftLeg -7.237094 -0.000000 0.000000
LeftFoot 2.493984 10.930385 -22.016298
LeftToeBase 8.737297 -0.000000 -0.000000
Spine -31.591305 40.304994 7.219671
RightShoulder -14.976612 35.959349 -41.542734
RightArm 4.156296 27.897948 39.419756
RightForeArm -16.026409 -0.000000 43.365746
RightHand 23.416868 -0.000000 -51.929117
RightHandThumb1 -24.326973 -0.000000 -32.862282
LeftShoulder -20.659783 10.838907 41.570569
LeftArm -2.810851 2.821095 -69.240687
LeftForeArm 10.916001 -0.000000 -8.294529
LeftHand -25.333556 0.000000 1.154560
LeftHandThumb1 -26.253704 0.000000 33.147579
Head -54.807121 -20.393429 30.455157
831
root 2.932373 28.505371 -9.856302 87.956982 -25.668351 41.888080
RightUpLeg -148.420442 -60.246315 33.489021
RightLeg -5.062263 -0.000000 0.000000
RightFoot 10.989821 0.365912 49.176867
RightToeBase 17.966976 -0.000000 -0.000000
LeftUpLeg -85.079551 -19.480099 -27.519202
LeftLeg -7.228432 -0.000000 0.000000
LeftFoot 2.486653 10.920014 -22.027693
LeftToeBase 8.757262 -0.000000 -0.000000
Spine -31.564796 40.357881 7.206384
RightShoulder -14.939645 36.054849 -41.520536
RightArm 4.100777 28.400826 39.448369
RightForeArm -16.489979 0.000000 43.933098
RightHand 23.428387 -0.000000 -51.783087
RightHandThumb1 -24.326973 -0.000000 -32.862282
LeftShoulder -20.649996 10.914787 41.502770
LeftArm -2.738964 2.857754 -69.255953
LeftForeArm 10.853182 -0.000000 -8.364870
LeftHand -25.282832 -0.000000 1.205051
LeftHandThumb1 -26.253704 0.000000 33.147579
Head -54.870649 -20.382501 30.417514
832
root 2.933649 28.502402 -9.864281 88.056257 -25.708968 41.926990
RightUpLeg -148.701152 -60.189360 33.674010
RightLeg -5.050007 -0.000000 0.000000
RightFoot 11.011956 0.391408 49.163769
RightToeBase 17.993260 -0.000000 -0.000000
LeftUpLeg -85.204182 -19.556115 -27.467393
LeftLeg -7.221791 -0.000000 0.000000
LeftFoot 2.465838 10.933509 -22.051718
LeftToeBase 8.753289 -0.000000 -0.000000
Spine -31.510952 40.379800 7.256685
RightShoulder -14.895540 36.141431 -41.488685
RightArm 4.061200 28.811778 39.457492
RightForeArm -16.888200 -0.000000 44.523556
RightHand 23.425812 -0.000000 -51.676457
RightHandThumb1 -24.326973 -0.000000 -32.862282
LeftShoulder -20.632512 10.873506 41.494123
LeftArm -2.825637 2.867155 -69.269348
LeftForeArm 11.002943 -0.000000 -8.387426
LeftHand -25.346477 -0.000000 1.054193
LeftHandThumb1 -26.253704 0.000000 33.147579
Head -54.912211 -20.370323 30.379550
833
root 2.934847 28.499092 -9.870703 88.153675 -25.749165 41.979166
RightUpLeg -149.001884 -60.143607 33.880102
RightLeg -5.042498 -0.000000 0.000000
RightFoot 11.033290 0.406973 49.159162
RightToeBase 17.994980 -0.000000 -0.000000
LeftUpLeg -85.309490 -19.647509 -27.471570
LeftLeg -7.212607 -0.000000 0.000000
LeftFoot 2.468179 10.926559 -22.048416
LeftToeBase 8.733989 -0.000000 -0.000000
Spine -31.472271 40.407782 7.289924
RightShoulder -14.836453 36.255614 -41.471792
RightArm 3.903769 29.192142 39.397206
RightForeArm -17.112711 -0.000000 45.191536
RightHand 23.470496 0.000000 -51.392997
RightHandThumb1 -24.326973 -0.000000 -32.862282
LeftShoulder -20.618866 10.915983 41.435531
LeftArm -2.799645 2.905668 -69.273945
LeftForeArm 11.029418 0.000000 -8.428473
LeftHand -25.335242 -0.000000 0.954670
LeftHandThumb1 -26.253704 0.000000 33.147579
Head -54.967619 -20.350859 30.320030
834
root 2.937841 28.496121 -9.874611 88.247775 -25.795883 42.049562
RightUpLeg -149.346348 -60.097943 34.124229
RightLeg -5.033737 -0.000000 0.000000
RightFoot 11.064702 0.431649 49.157777
RightToeBase 18.031881 -0.000000 -0.000000
LeftUpLeg -85.404857 -19.748534 -27.441747
LeftLeg -7.231155 -0.000000 0.000000
LeftFoot 2.485374 10.925165 -22.029783
LeftToeBase 8.678628 -0.000000 -0.000000
Spine -31.420569 40.412543 7.345108
RightShoulder -14.814941 36.264657 -41.476692
RightArm 3.911634 29.597944 39.470879
RightForeArm -17.593123 -0.000000 45.815698
RightHand 23.278632 -0.000000 -51.349121
RightHandThumb1 -24.326973 -0.000000 -32.862282
LeftShoulder -20.627846 10.835108 41.405483
LeftArm -2.887964 2.943872 -69.256954
LeftForeArm 11.183086 -0.000000 -8.467756
LeftHand -25.364642 0.000000 0.931831
LeftHandThumb1 -26.253704 0.000000 33.147579
Head -55.029798 -20.318886 30.200125
835
root 2.939424 28.493622 -9.880221 88.343975 -25.819229 42.100343
RightUpLeg -149.650167 -60.035033 34.362471
RightLeg -5.039179 -0.000000 0.000000
RightFoot 11.126531 0.469556 49.225179
RightToeBase 18.415109 -0.000000 -0.000000
LeftUpLeg -85.512686 -19.841151 -27.405973
LeftLeg -7.227708 -0.000000 0.000000
LeftFoot 2.477118 10.933739 -22.012289
LeftToeBase 8.695087 -0.000000 -0.000000
Spine -31.375438 40.432583 7.422501
RightShoulder -14.728515 36.337456 -41.405972
RightArm 3.840195 30.005335 39.446465
RightForeArm -18.057415 -0.000000 46.516037
RightHand 23.079857 -0.000000 -51.169078
RightHandThumb1 -24.326973 -0.000000 -32.862282
LeftShoulder -20.599691 10.931330 41.344675
LeftArm -2.825814 2.957627 -69.275849
LeftForeArm 11.132443 -0.000000 -8.498087
LeftHand -25.381160 -0.000000 0.898288
LeftHandThumb1 -26.253704 0.000000 33.147579
Head -55.058367 -20.331067 30.123527
